<svg xmlns="http://www.w3.org/2000/svg" viewBox="0 0 1096 767">
  <path
    d="M813.173,384.577a100.806,100.806,0,0,0-201.613,0c0,30.444,13.79,57.419,35.141,75.907C613.758,574.758,508.6,658.427,383.718,658.427c-151.25,0-273.851-122.621-273.851-273.851,0-151.25,122.6-273.871,273.851-273.871,1.855,0,3.629.242,5.464.282A424.44,424.44,0,0,1,533.677.847H383.718C171.8.847.008,172.641.008,384.577c0,211.915,171.794,383.71,383.71,383.71,180.766,0,331.915-125.141,372.581-293.387,33.569-16.371,56.875-50.484,56.875-90.323"
    fill="#ed7203"/>
  <path
    transform="translate(282.258)"
    d="M430.109.843C249.363.843,98.214,125.984,57.528,294.25,23.96,310.6.653,344.734.653,384.573a100.806,100.806,0,1,0,201.613,0c0-30.464-13.77-57.419-35.121-75.907C200.069,194.391,305.23,110.7,430.109,110.7c151.25,0,273.851,122.621,273.851,273.871s-122.6,273.851-273.851,273.851c-1.835,0-3.629-.242-5.464-.262A424.757,424.757,0,0,1,280.169,768.282h149.94c211.936,0,383.73-171.794,383.73-383.71,0-211.935-171.794-383.73-383.73-383.73"
    fill="#f28f00"/>
</svg>